<?xml version="1.0" encoding="UTF-8" standalone="no"?>
<!-- Created with Inkscape (http://www.inkscape.org/) -->

<svg
   xmlns:dc="http://purl.org/dc/elements/1.1/"
   xmlns:cc="http://creativecommons.org/ns#"
   xmlns:rdf="http://www.w3.org/1999/02/22-rdf-syntax-ns#"
   xmlns:svg="http://www.w3.org/2000/svg"
   xmlns="http://www.w3.org/2000/svg"
   xmlns:sodipodi="http://sodipodi.sourceforge.net/DTD/sodipodi-0.dtd"
   xmlns:inkscape="http://www.inkscape.org/namespaces/inkscape"
   width="744.09448819"
   height="1052.3622047"
   id="svg3185"
   version="1.1"
   inkscape:version="0.48.2 r9819"
   sodipodi:docname="vaadin-arrow-down.svg">
  <defs
     id="defs3187" />
  <sodipodi:namedview
     id="base"
     pagecolor="#393939"
     bordercolor="#666666"
     borderopacity="1.0"
     inkscape:pageopacity="0"
     inkscape:pageshadow="2"
     inkscape:zoom="6.4709491"
     inkscape:cx="147.03407"
     inkscape:cy="878.4801"
     inkscape:document-units="px"
     inkscape:current-layer="layer1"
     showgrid="true"
     inkscape:window-width="1022"
     inkscape:window-height="1019"
     inkscape:window-x="0"
     inkscape:window-y="0"
     inkscape:window-maximized="0"
     showguides="true"
     inkscape:guide-bbox="true">
    <inkscape:grid
       type="xygrid"
       id="grid3193"
       empspacing="5"
       visible="true"
       enabled="true"
       snapvisiblegridlinesonly="true" />
  </sodipodi:namedview>
  <metadata
     id="metadata3190">
    <rdf:RDF>
      <cc:Work
         rdf:about="">
        <dc:format>image/svg+xml</dc:format>
        <dc:type
           rdf:resource="http://purl.org/dc/dcmitype/StillImage" />
        <dc:title></dc:title>
      </cc:Work>
    </rdf:RDF>
  </metadata>
  <g
     inkscape:label="Layer 1"
     inkscape:groupmode="layer"
     id="layer1"
     style="display:inline">
    <g
       transform="matrix(0,0.06329721,-0.06329721,0,140.04337,158.61511)"
       id="g6827-8-0"
       inkscape:export-filename="/home/magi/itmill/book-examples-v7/WebContent/VAADIN/themes/book-examples/icons/vaadin-arrow-down-white.png"
       inkscape:export-xdpi="232.28"
       inkscape:export-ydpi="232.28">
      <g
         id="g6829-7-6"
         transform="matrix(29.999985,-0.03019888,0.03019888,29.999985,-11004.221,-15375.022)">
        <g
           style="fill:#ffffff;fill-opacity:1"
           transform="matrix(0.71644053,0,0,0.71644053,103.9698,144.62879)"
           id="g6831-7-1">
          <path
             inkscape:connector-curvature="0"
             transform="matrix(0.03333332,3.3554312e-5,-3.3554312e-5,0.03333332,366.53421,512.86995)"
             style="fill:#ffffff;fill-opacity:1;fill-rule:evenodd;stroke:none;display:inline"
             d="M 142.5625,-6.4375 40.6875,-6.34375 C 29.868538,-6.48507 19.811533,-0.790227 14.367338,8.560208 8.9231424,17.910644 8.9351814,29.468085 14.398845,38.807157 19.862509,48.14623 29.931356,53.820109 40.75,53.65625 L 142.625,53.5625 c 10.81896,0.14132 20.87597,-5.553523 26.32016,-14.903958 5.4442,-9.350436 5.43216,-20.907877 -0.0315,-30.246949 C 163.44999,-0.92748 153.38114,-6.601359 142.5625,-6.4375 l 0,0 z"
             id="path6833-7-8" />
          <path
             inkscape:connector-curvature="0"
             style="fill:#ffffff;fill-opacity:1;fill-rule:evenodd;stroke:none"
             d="m 366.65701,514.67289 4.625,0 -1.8125,1.8125 c -0.39695,0.39695 -0.39695,1.04055 0,1.4375 0.39695,0.39695 1.04055,0.39695 1.4375,0 l 3.4375,-3.46875 0.0937,-0.0625 c 0.006,-0.006 -0.006,-0.0253 0,-0.0312 0.0554,-0.0572 0.1151,-0.11699 0.15625,-0.1875 0.0286,-0.0491 0.0429,-0.10409 0.0625,-0.15625 0.0124,-0.0307 0.0221,-0.0622 0.0312,-0.0937 0.0311,-0.1161 0.0427,-0.22493 0.0312,-0.34375 -0.004,-0.0578 -0.0174,-0.0996 -0.0312,-0.15625 -0.0109,-0.0407 -0.0151,-0.0857 -0.0312,-0.125 -0.0164,-0.0408 -0.0405,-0.0862 -0.0625,-0.125 -0.0455,-0.0779 -0.0936,-0.15726 -0.15625,-0.21875 l -3.53125,-3.53125 c -0.20891,-0.22276 -0.50816,-0.33785 -0.8125,-0.3125 -0.39478,0.0269 -0.73977,0.28438 -0.875,0.65625 -0.13524,0.37187 -0.0353,0.78826 0.25,1.0625 l 1.875,1.84375 -4.6875,0"
             id="path6835-3-1"
             sodipodi:nodetypes="cccscccsssssssscccsccc" />
        </g>
      </g>
    </g>
  </g>
</svg>
